<svg width="190" height="190" viewBox="0 0 190 190" fill="none" xmlns="http://www.w3.org/2000/svg">
<path d="M181.395 0.387917C176.993 0.59375 73.3242 5.7 38.4908 40.5333C24.7637 54.2996 16.6237 72.6637 15.6427 92.0797C14.6617 111.496 20.9091 130.587 33.1787 145.667L0 178.845L11.2021 190L44.3729 156.877C59.4535 169.149 78.5471 175.398 97.9656 174.415C117.384 173.433 135.749 165.289 149.514 151.557C185.044 116.035 189.493 13.015 189.66 8.61333L190 0L181.395 0.387917ZM138.32 140.362C127.525 151.128 113.181 157.596 97.9666 158.56C82.7518 159.525 67.7062 154.919 55.6383 145.603L131.931 69.3104L120.737 58.1162L44.4442 134.409C35.1283 122.341 30.5227 107.296 31.4871 92.0809C32.4515 76.8662 38.92 62.5225 49.685 51.7275C74.8521 26.5604 147.907 18.7783 173.304 16.7992C171.451 42.0771 164.002 114.681 138.32 140.362Z" fill="url(#paint0_linear_303_1248)"/>
<defs>
<linearGradient id="paint0_linear_303_1248" x1="5.79268" y1="96.3768" x2="190" y2="96.3768" gradientUnits="userSpaceOnUse">
<stop stop-color="#2E3B16"/>
<stop offset="1" stop-color="#6A8832"/>
</linearGradient>
</defs>
</svg>
